<?xml version="1.0" encoding="UTF-8" standalone="no"?>
<!-- Created with Inkscape (http://www.inkscape.org/) -->

<svg width="45.624428mm" height="29.512486mm" viewBox="0 0 45.624428 29.512486" version="1.1" id="svg5" xml:space="preserve" inkscape:version="1.2 (dc2aedaf03, 2022-05-15)" sodipodi:docname="logo-inkscape.svg" inkscape:export-filename="leaves.svg" inkscape:export-xdpi="96" inkscape:export-ydpi="96"
  xmlns:inkscape="http://www.inkscape.org/namespaces/inkscape"
  xmlns:sodipodi="http://sodipodi.sourceforge.net/DTD/sodipodi-0.dtd"
  xmlns="http://www.w3.org/2000/svg"
  xmlns:svg="http://www.w3.org/2000/svg">
  <sodipodi:namedview id="namedview7" pagecolor="#ffffff" bordercolor="#000000" borderopacity="0.25" inkscape:showpageshadow="2" inkscape:pageopacity="0.0" inkscape:pagecheckerboard="0" inkscape:deskcolor="#d1d1d1" inkscape:document-units="mm" showgrid="false" inkscape:zoom="1.0544998" inkscape:cx="473.21014" inkscape:cy="274.06359" inkscape:window-width="1920" inkscape:window-height="1017" inkscape:window-x="-8" inkscape:window-y="-8" inkscape:window-maximized="1" inkscape:current-layer="layer1" />
  <defs id="defs2" />
  <g inkscape:label="Layer 1" inkscape:groupmode="layer" id="layer1" transform="translate(-84.207941,-58.26874)">
    <g id="g370" transform="translate(-75.774473,-53.694494)" style="fill:#238636;fill-opacity:1;stroke:#0a8600;stroke-opacity:1" inkscape:export-filename="logo.svg" inkscape:export-xdpi="96" inkscape:export-ydpi="96">
      <path style="fill:#238636;fill-opacity:1;stroke:#0a8600;stroke-width:0.264583;stroke-opacity:1" d="m 188.40137,134.60026 c -0.4774,-0.0635 -1.78462,-8.31787 0.0665,-12.57459 2.33828,-5.37686 8.16129,-6.74195 10.82258,-7.45162 2.66129,-0.70969 5.05645,-2.39517 5.05645,-2.39517 0,0 2.12904,7.54034 0.53226,11.79838 -3.16033,7.74424 -9.20547,7.86623 -13.64561,11.21417 -0.64756,0.49955 -0.59144,-3.48195 1.02689,-7.41858 1.49298,-3.63173 4.22092,-6.76208 3.92517,-6.54559 -7.75543,5.67709 -7.30687,13.43654 -7.78427,13.373 z" id="path410-4-8" sodipodi:nodetypes="zsscccssz" />
      <path style="fill:#238636;fill-opacity:1;stroke:#0a8600;stroke-width:0.330775;stroke-opacity:1" d="m 186.11355,139.7364 c 0.56157,-0.21714 -0.26965,-10.63202 -3.76725,-15.26259 -4.41805,-5.84907 -11.89504,-5.80096 -15.33739,-5.88323 -3.44237,-0.0823 -6.84736,-1.42849 -6.84736,-1.42849 0,0 -0.37687,9.78805 2.81204,14.49477 6.11114,8.48517 13.49365,6.86119 19.87132,9.62829 0.93345,0.41726 -0.302,-4.40506 -3.42288,-8.71485 -2.87914,-3.97601 -7.11216,-6.98062 -6.68926,-6.80422 11.08962,4.62581 12.8193,14.18748 13.38086,13.97031 z" id="path410-4-8-9" sodipodi:nodetypes="zsscccssz" />
    </g>
  </g>
</svg>
